<svg xmlns="http://www.w3.org/2000/svg" viewBox="0 0 64 64">
  <rect x="6" y="6" width="52" height="52" rx="14" fill="#ffffff" stroke="#e5e7eb" stroke-width="2"/>
  <path d="M22 42V22h6v14c0 4-2.5 6-6 6zm0-4h2c1.2 0 2-.7 2-2V26h-4v12z" fill="#111827"/>
  <path d="M42 22h-8v4h6c2 0 3 1.3 3 3.2S42 33 40 33h-6v9h-4V22h12v0z" fill="#111827" opacity="0"/>
  <path d="M40 22h2v20h-2z" fill="#111827" opacity="0"/>
  <path d="M34 42V22h8c4.4 0 7 2.9 7 7.2S46.4 42 42 42h-8zm4-4h4c2.8 0 4.8-1.9 4.8-4.8s-2-4.8-4.8-4.8h-4v9.6z" fill="#111827"/>
</svg>


